<svg xmlns="http://www.w3.org/2000/svg" width="171.09" height="225.15" viewBox="0 0 171.09 225.15">
  <title>contact</title>
  <g>
    <path d="M126.05,188.89c0-3,0-5.8,0-8.6.06-3,1.74-4.77,4.36-4.82s4.6,1.79,4.61,4.87c.05,10.6.12,21.2,0,31.8-.08,7.3-6.27,13-13.86,13q-37.28,0-74.55,0H14.26C5.74,225.12,0,219.37,0,210.81V14.39C0,5.67,5.71,0,14.47,0H120.54c8.89,0,14.52,5.69,14.52,14.63q0,14.49,0,29c0,3.54-1.68,5.62-4.46,5.65s-4.51-2.06-4.54-5.57c0-2.43,0-4.86,0-7.48H9.17V188.89ZM9,198.22v11.23c0,5.41,1.25,6.68,6.55,6.68h104c.84,0,1.91.29,2.48-.12,1.42-1,3.6-2.24,3.73-3.56.45-4.69.17-9.45.17-14.23ZM9,26.82h117V15.43c0-5.11-1.33-6.42-6.52-6.42H44.48c-10,0-20,0-30.08,0-3.35,0-5.26,1.51-5.35,4.43C8.92,17.84,9,22.24,9,26.82Z" style="fill: #061c23"/>
    <path d="M72,67.15c1,.08,1.68.19,2.41.19,23.71,0,47.43.13,71.14-.06,7.4-.06,13.91,1.55,19.15,7a21.63,21.63,0,0,1,6.33,15.46c0,15,.06,30,0,45-.06,13.1-10.68,22.94-23.81,22.82-24.56-.21-49.12-.09-73.68-.11-.37,0-.74.07-1.53.15,0,4,0,8,0,12a9,9,0,0,1-.51,3.28c-.83,1.93-2.65,3.09-4.53,2.36-1.52-.58-2.75-2.18-3.79-3.56-.46-.61-.15-1.82-.15-2.76q0-56.53,0-113.07c0-.65,0-1.31,0-2a4.4,4.4,0,0,1,4.5-4.42A4.33,4.33,0,0,1,72,53.85c.11,3.37,0,6.75,0,10.12Zm.14,81.25H86c20.9-.07,41.79-.05,62.69-.26,8-.08,13.29-5.7,13.33-13.64.07-13,0-26.06,0-39.09,0-.42-.07-.83-.13-1.5-.68.36-1.1.55-1.47.79-11.37,7.43-22.8,14.77-34.08,22.32a32.37,32.37,0,0,1-36,.42l-16-10.5c-.66-.44-1.39-.77-2.25-1.24ZM72,76.57c0,5.8-.06,11.49.07,17.18,0,.68,1,1.51,1.67,2,7.43,4.89,14.82,9.83,22.37,14.52,7.78,4.82,15.84,4.91,23.61.07,9.62-6,19-12.28,28.53-18.45,4.06-2.64,8.11-5.3,12.36-8.08-2.62-4.46-6.11-7.24-11.12-7.26-25.2-.11-50.39-.1-75.59-.13C73.41,76.39,72.87,76.49,72,76.57Z" style="fill: #061c23"/>
    <path d="M67.43,211.62A4.62,4.62,0,0,1,62.57,207c.1-2.59,2.3-4.43,5.18-4.34a4.62,4.62,0,0,1,4.73,4.52C72.46,209.74,70.3,211.66,67.43,211.62Z" style="fill: #061c23"/>
    <path d="M67.81,13.5c5.62,0,11.25,0,16.88,0C88,13.52,90,15.27,90,18s-2,4.5-5.32,4.5q-17.16,0-34.32,0C47.05,22.5,45,20.74,45,18s2-4.47,5.32-4.49c5.82,0,11.63,0,17.45,0Z" style="fill: #061c23"/>
  </g>
</svg>
