<svg id="a72345b5-9760-4917-8bf5-68973efeaa31" data-name="Layer 1" xmlns="http://www.w3.org/2000/svg" width="576.53" height="205.04" viewBox="0 0 576.53 205.04">
  <title>popshap_logo_tagline</title>
  <g>
    <g>
      <path d="M111.63,237.75h9.27V251a37.15,37.15,0,0,1,12.62-11.32,33.66,33.66,0,0,1,15.94-3.77,35.57,35.57,0,0,1,26.25,11,36.53,36.53,0,0,1,10.91,26.61,37.22,37.22,0,0,1-10.81,27A36.43,36.43,0,0,1,133.92,308a39.61,39.61,0,0,1-13-10.66V336.1h-9.27Zm37.06,7.08a27.21,27.21,0,0,0-20.24,8.4q-8.22,8.4-8.22,20.89a29.55,29.55,0,0,0,3.67,14.74,26.74,26.74,0,0,0,10.5,10.38,29,29,0,0,0,14.42,3.83,27.2,27.2,0,0,0,14-3.86,28.39,28.39,0,0,0,10.46-10.81,29.17,29.17,0,0,0,0-29.09,27.86,27.86,0,0,0-24.66-14.48Z" transform="translate(-111.63 -209.96)" style="fill: #5cb9cd"/>
      <path d="M292.84,237.75h9.27V251a37.18,37.18,0,0,1,12.63-11.32,33.62,33.62,0,0,1,15.93-3.77,35.57,35.57,0,0,1,26.25,11,36.53,36.53,0,0,1,10.91,26.61,37.22,37.22,0,0,1-10.81,27A36.43,36.43,0,0,1,315.13,308a39.61,39.61,0,0,1-13-10.66V336.1h-9.27Zm37.06,7.08a27.19,27.19,0,0,0-20.23,8.4q-8.24,8.4-8.23,20.89a29.66,29.66,0,0,0,3.67,14.74,26.74,26.74,0,0,0,10.5,10.38A29,29,0,0,0,330,303.07a27.19,27.19,0,0,0,14-3.86,28.32,28.32,0,0,0,10.46-10.81,29.2,29.2,0,0,0,0-29.09,27.89,27.89,0,0,0-24.67-14.48Z" transform="translate(-111.63 -209.96)" style="fill: #5cb9cd"/>
      <path d="M421.37,245.63l-6,6.15q-7.43-7.22-14.53-7.21a11,11,0,0,0-7.73,3,9.21,9.21,0,0,0-3.22,6.95,10.29,10.29,0,0,0,2.66,6.68q2.64,3.24,11.14,7.61,10.35,5.37,14.06,10.33a18.8,18.8,0,0,1,3.65,11.31,20.34,20.34,0,0,1-6.23,15,21.3,21.3,0,0,1-15.58,6.15,27.2,27.2,0,0,1-11.9-2.71,25.85,25.85,0,0,1-9.38-7.48l5.82-6.62q7.11,8,15.06,8a13.58,13.58,0,0,0,9.49-3.57,11.06,11.06,0,0,0,3.91-8.41,10.77,10.77,0,0,0-2.58-7.08q-2.6-3-11.68-7.68-9.75-5-13.26-9.93A18.64,18.64,0,0,1,381.59,255a18.17,18.17,0,0,1,5.61-13.63,19.5,19.5,0,0,1,14.15-5.43Q411.3,235.9,421.37,245.63Z" transform="translate(-111.63 -209.96)" style="fill: #5cb9cd"/>
      <path d="M437.78,210h9.27v40.7a39.45,39.45,0,0,1,12.38-11.09,30.08,30.08,0,0,1,14.62-3.67,25.58,25.58,0,0,1,14.33,4.1,24.46,24.46,0,0,1,9.23,11q3,6.91,3,21.68v37.06h-9.26V275.41q0-12.44-1-16.61-1.71-7.16-6.25-10.76t-11.88-3.6A22.84,22.84,0,0,0,457.14,250a26,26,0,0,0-8.77,13.76q-1.32,5.3-1.32,19.59v26.41h-9.27Z" transform="translate(-111.63 -209.96)" style="fill: #5cb9cd"/>
      <path d="M592.19,237.75v72h-9.13V297.38A39.67,39.67,0,0,1,570,308a36.55,36.55,0,0,1-42-7.51,37.18,37.18,0,0,1-10.82-27A36.5,36.5,0,0,1,528.12,247a35.6,35.6,0,0,1,26.28-11,34.05,34.05,0,0,1,16.05,3.77A36.58,36.58,0,0,1,583.06,251V237.75Zm-37,7.08a27.92,27.92,0,0,0-24.69,14.48,29.17,29.17,0,0,0,0,29.09A28.37,28.37,0,0,0,541,299.21a27.35,27.35,0,0,0,14.12,3.86,28.91,28.91,0,0,0,14.41-3.83A26.86,26.86,0,0,0,580,288.86a29.55,29.55,0,0,0,3.67-14.74q0-12.5-8.23-20.89A27.24,27.24,0,0,0,555.16,244.83Z" transform="translate(-111.63 -209.96)" style="fill: #5cb9cd"/>
      <path d="M613.17,237.75h9.27V251a37.09,37.09,0,0,1,12.63-11.32A33.62,33.62,0,0,1,651,235.9a35.57,35.57,0,0,1,26.25,11,36.53,36.53,0,0,1,10.91,26.61,37.22,37.22,0,0,1-10.81,27A36.43,36.43,0,0,1,635.46,308a39.61,39.61,0,0,1-13-10.66V336.1h-9.27Zm37.06,7.08a27.17,27.17,0,0,0-20.23,8.4q-8.24,8.4-8.23,20.89a29.55,29.55,0,0,0,3.67,14.74,26.74,26.74,0,0,0,10.5,10.38,29,29,0,0,0,14.43,3.83,27.19,27.19,0,0,0,14-3.86,28.32,28.32,0,0,0,10.46-10.81,29.2,29.2,0,0,0,0-29.09,27.89,27.89,0,0,0-24.67-14.48Z" transform="translate(-111.63 -209.96)" style="fill: #5cb9cd"/>
    </g>
    <path d="M265.62,247.94a37.3,37.3,0,0,0-8.87-7.25v11.8c.36.34.73.65,1.08,1a28.49,28.49,0,0,1,8.34,20.65,29.21,29.21,0,0,1-3.79,14.56,26.79,26.79,0,0,1-10.23,10.43,29.09,29.09,0,0,1-28.29,0,26.93,26.93,0,0,1-10.23-10.43,29.31,29.31,0,0,1-3.78-14.56,28.54,28.54,0,0,1,8.3-20.65l.24-.22v-12a38.55,38.55,0,0,0-7.43,59q10.5,11.28,27.08,11.28t27-11.28a38.66,38.66,0,0,0,.56-52.39Z" transform="translate(-111.63 -209.96)" style="fill: #5cb9cd"/>
    <path d="M237.2,270.59c-2.33,0-4.21-2.29-4.21-5.12V234.18c0-2.83,1.88-5.12,4.21-5.12s4.21,2.29,4.21,5.12v31.29C241.41,268.3,239.52,270.59,237.2,270.59Z" transform="translate(-111.63 -209.96)" style="fill: #5cb9cd"/>
  </g>
  <text transform="translate(0 186.99)" style="font-size: 43.09836959838867px;fill: #123944;font-family: Montserrat-Medium, Montserrat;font-weight: 500;letter-spacing: 0.10000514251265646em">BE<tspan x="67.66" y="0" style="letter-spacing: 0.07401536150846094em">Y</tspan><tspan x="98.82" y="0">OND INTER</tspan><tspan x="382.63" y="0" style="letter-spacing: 0.08200263073599269em">A</tspan><tspan x="418.35" y="0" style="letter-spacing: 0.09999381305275926em">CTIVE</tspan></text>
</svg>
