<svg xmlns="http://www.w3.org/2000/svg" width="480.06" height="405.01" viewBox="0 0 480.06 405.01">
  <title>project</title>
  <g>
    <path d="M435,331.93c0,9.93,0,19.08,0,28.24.07,15.45-1.46,17-16.67,16.92-10.83,0-21.66.05-32.49.1a8,8,0,0,0-1.62.58c0,5,0,10.25,0,15.52,0,8.59-3.11,11.7-11.78,11.7q-96.74,0-193.48,0H108c-9.55,0-12.47-3-12.51-12.6,0-4.82,0-9.64,0-15-2.09-.11-3.83-.26-5.58-.27-11.33,0-22.66.05-34,0C48.25,377,45.1,373.77,45,366c-.07-10.83-.07-21.66-.11-32.49a7.73,7.73,0,0,0-.55-1.6H25.84c-4.83,0-9.67,0-14.5,0-8-.08-11.27-3.23-11.29-11.17Q0,296.47,0,272.22v-186C0,75.91,2.76,73.13,13,73.11c10.47,0,20.94,0,32,0,0-9.55,0-18.66,0-27.77,0-15.78,1.15-16.92,17.12-16.9l28,0h5.4c0-5.91,0-11.21,0-16.51.08-8.56,3.37-12,11.76-12Q240,0,372.74,0c8.21,0,11.47,3.35,11.52,11.56,0,5.32,0,10.65,0,16.59,2,.12,3.7.3,5.44.3,11.16,0,22.33-.06,33.49,0,8.54,0,11.78,3.31,11.82,11.83,0,10.78,0,21.57,0,32.82,10.87,0,21.16,0,31.45,0C477.23,73.12,480,76,480,86.83l0,232c0,10.24-2.86,13.13-13,13.13Zm-69.87,54.13V210.33H114.56V386.06ZM114.47,60.26V191.15c1.81.08,3.44.22,5.06.22,11.17,0,22.34-.1,33.5.07a11,11,0,0,0,8.76-3.58q31.65-32,63.57-63.69c6.61-6.61,11.11-6.62,17.74.17,4.28,4.39,8.37,9,13.83,14.84,1.67-2.61,2.42-4.39,3.69-5.67q24.48-24.64,49.1-49.17c6.53-6.52,10.8-6.5,17.41.08q17,17,33.94,33.93c1.17,1.18,2.43,2.27,4,3.76V60.26ZM95.2,47.65H63.7v6.53q0,53,0,106a39.67,39.67,0,0,1-.27,6A8.83,8.83,0,0,1,54.07,174a8.94,8.94,0,0,1-8.94-8.35c-.16-1.65-.1-3.33-.1-5V92.23H19.09V312.71H45V263.88c0-8-.11-16,.08-24a9,9,0,0,1,8.75-9.1c5.17-.23,9.08,3.22,9.68,8.69A50.19,50.19,0,0,1,63.7,245q0,53.47,0,107v6.22H95.2Zm289.45-.3V358.17h31.29V47.35ZM365.27,19.21H114.58V41H365.27Zm95.52,293.65V92.2H435.31V312.86ZM365.5,191.38c0-13.09.16-25.39-.14-37.68a11.75,11.75,0,0,0-3-7.28c-13.47-13.83-27.19-27.41-40.85-41-1-1-2.15-1.87-3.41-3-8.28,8.29-16.25,16.3-24.25,24.29s-16,15.91-24.17,24.06c9,9,18.34,17,25.87,26.36,9.43,11.78,20.54,16.07,35.37,14.5C342.06,190.43,353.45,191.38,365.5,191.38ZM185.92,191h95.6l-47.37-47.89Z" style="fill: #061c23"/>
    <path d="M239.73,285.66q-45,0-89.93,0c-10,0-12.88-2.87-12.9-12.7q0-15.74,0-31.47c0-9.17,3-12.19,12.37-12.2q51.47,0,102.92,0,38.73,0,77.44,0c10.79,0,13.49,2.78,13.5,13.71q0,15.24,0,30.48c0,8.79-3.34,12.21-12,12.21Zm-84-19.18H323.91V248.41H155.72Z" style="fill: #061c23"/>
    <path d="M239.74,365.94q-46,0-91.9,0c-6.17,0-9.91-2.72-10.72-7.54-1.08-6.35,3-11,10.16-11.09,12.32-.15,24.64-.09,37-.09q72.67,0,145.34.06a33,33,0,0,1,6,.34,9.18,9.18,0,0,1,7.52,9.24,9.32,9.32,0,0,1-7.95,8.93,40,40,0,0,1-5.48.16Z" style="fill: #061c23"/>
    <path d="M221.22,326.9H149.3a31.94,31.94,0,0,1-4.49-.14,9.12,9.12,0,0,1-7.83-8.44,8.79,8.79,0,0,1,6.84-9.67,22.87,22.87,0,0,1,5.43-.47q71.43,0,142.85,0c1.17,0,2.34,0,3.5,0,6.23.38,10,4.05,9.84,9.63s-4,9.07-10.3,9.09c-24.64.06-49.28,0-73.92,0Z" style="fill: #061c23"/>
    <path d="M343.07,317.58a9.38,9.38,0,0,1-18.75,0,9.38,9.38,0,0,1,18.75,0Z" style="fill: #061c23"/>
    <path d="M192.33,106.14a29,29,0,0,1-58.05-.3,29.29,29.29,0,0,1,29-28.94A29,29,0,0,1,192.33,106.14ZM163.49,95.81A10.18,10.18,0,1,0,173.56,106,10.06,10.06,0,0,0,163.49,95.81Z" style="fill: #061c23"/>
    <path d="M63.62,199.35a9.27,9.27,0,1,1-9.27-9.13A9.36,9.36,0,0,1,63.62,199.35Z" style="fill: #061c23"/>
  </g>
</svg>
