<svg xmlns="http://www.w3.org/2000/svg" width="512" height="512" viewBox="0 0 512 512">
  <title>redo</title>
  <path d="M502.12,1.21a16,16,0,0,0-17.43,3.48l-57.6,57.6C379.61,23.08,318.68,0,256,0,114.84,0,0,114.84,0,256S114.84,512,256,512a254.2,254.2,0,0,0,181-75A21.33,21.33,0,0,0,406.8,406.8,211.83,211.83,0,0,1,256,469.33c-117.63,0-213.33-95.7-213.33-213.33S138.37,42.67,256,42.67c51.41,0,101.33,18.49,140.78,49.92L346,143.36a16,16,0,0,0,11.3,27.31H496a16,16,0,0,0,16-16V16A16,16,0,0,0,502.12,1.21Z" style="fill: #051c22"/>
</svg>
