<svg xmlns="http://www.w3.org/2000/svg" width="160.61" height="213.69" viewBox="0 0 160.61 213.69">
  <title>retail</title>
  <g>
    <g>
      <path d="M159.58,208.22c-.12-2.84-.18-5.68-.26-8.52q-1.15-38.07-2.32-76.15h-.26c0-2.75.07-5.51,0-8.26q-1.15-38.6-2.37-77.18c-.1-3.42-.79-4-4.17-4-7.06,0-14.12.06-21.17-.06a3.17,3.17,0,0,1-2.39-1.51C118.77,13.92,104.79,3.59,84.86,1.3,63.54-1.15,42.3,11.66,34.4,31.71c-.72,1.8-1.53,2.45-3.49,2.41C24,34,17.14,34,10.25,34.06c-3.13,0-3.81.67-4,3.7-.07.94-.12,1.89-.15,2.83Q4.71,85.91,3.35,131.2,2.2,169.54,1,207.87c-.13,4.13.45,4.82,4.61,4.82H155.4C159,212.69,159.74,211.86,159.58,208.22ZM126.92,52.15A8.18,8.18,0,1,1,118.59,60,8.4,8.4,0,0,1,126.92,52.15ZM80.29,6.34c18.21,0,37.64,13.1,40.73,27.58H39.57C42.58,19.5,62.1,6.34,80.29,6.34ZM33.56,52.15A8.19,8.19,0,1,1,34,68.52a8.19,8.19,0,0,1-.39-16.37Zm-27.22,155C8.05,151.28,9.75,95.55,11.45,39.61H31.86a61.83,61.83,0,0,1-.71,6.71c-.12.6-1.3,1.13-2.09,1.44A13.44,13.44,0,1,0,47,63c1.32-5.9-1.65-12.4-7.37-14.7-2.8-1.12-3.47-2.46-2.77-5.09.31-1.15.41-2.36.63-3.68h85.68c.24,1.71.38,3.43.74,5.09s-.13,2.53-1.88,3.17a13.1,13.1,0,0,0-8.67,12.78,13.42,13.42,0,0,0,25.9,4.64c2.63-6.67-.31-14.37-6.92-17-2.42-1-3.33-2.14-3.24-4.57a28.19,28.19,0,0,0-.42-4h20.47c1.7,55.82,3.41,111.55,5.12,167.58Z" style="fill: #061c23"/>
      <path d="M155.41,213.69H5.63c-2.22,0-3.69-.19-4.62-1.15s-1.07-2.39-1-4.7Q1,175,2,142.12L5.07,40.56c0-1,.09-1.92.15-2.88.26-3.57,1.38-4.61,5-4.62H13.8c5.61,0,11.42,0,17.13.07,1.49,0,2-.3,2.54-1.78C41.54,10.86,63.2-2.19,85,.31c20.32,2.33,34.64,13,42.58,31.79A2.3,2.3,0,0,0,129,33c5.12.08,10.33.07,15.37.06h5.79c3.94,0,5.05,1.08,5.17,5q1.21,38.59,2.36,77.19c.06,1.9.05,3.82,0,5.68,0,.54,0,1.08,0,1.61H158l2.42,79.67c.05,2,.11,4,.19,6h0c.09,1.91-.05,3.38-1,4.35S157.26,213.69,155.41,213.69ZM20.58,35l-6.77,0H10.25c-2.6,0-2.85.24-3,2.77q-.1,1.39-.15,2.79L4,142.18Q3,175,2,207.9c-.05,1.41,0,2.78.43,3.25s1.29.54,3.18.54H155.41c1.54,0,2.39-.16,2.75-.54s.5-1.27.43-2.88h0c-.09-2-.15-4-.2-6l-.07-2.55L156,124.55h-.29v-1c0-.88,0-1.75,0-2.62,0-1.85,0-3.75,0-5.61q-1.15-38.59-2.37-77.18c-.09-2.85-.32-3.08-3.17-3.08h-5.78c-5,0-10.27,0-15.41-.06a4.14,4.14,0,0,1-3.29-2.12c-7.64-18.05-21.42-28.34-41-30.59C63.86-.11,43.08,12.42,35.33,32.07c-.89,2.24-2.15,3.1-4.44,3C27.47,35.05,24,35,20.58,35Zm134.7,173.16H5.31L10.48,38.61H33l-.1,1.09c-.06.64-.11,1.27-.16,1.89a37.73,37.73,0,0,1-.57,4.93c-.22,1-1.49,1.69-2.7,2.17a12.57,12.57,0,0,0-7.87,13.78,12.41,12.41,0,0,0,12.56,10.3A12.54,12.54,0,0,0,46,62.82c1.25-5.58-1.73-11.53-6.77-13.55C36,48,35,46.15,35.88,43a19.24,19.24,0,0,0,.41-2.32c.06-.41.12-.83.19-1.26l.14-.84H124l.12.86c.07.53.14,1.06.2,1.59.15,1.19.29,2.32.53,3.43.48,2.2-.27,3.49-2.51,4.32a12.06,12.06,0,0,0-8,11.83,12.41,12.41,0,0,0,24,4.28,12.1,12.1,0,0,0-6.37-15.74c-2.85-1.15-4-2.76-3.85-5.54a14,14,0,0,0-.23-2.46c-.07-.45-.14-.92-.19-1.42l-.13-1.11H150.1Zm-147.91-2H153.22L148.16,40.61H129.8a2.23,2.23,0,0,1,0,.23,15.27,15.27,0,0,1,.24,2.84c-.07,2,.51,2.76,2.61,3.6a14.11,14.11,0,0,1,7.48,18.33,14.41,14.41,0,0,1-27.83-5,14.19,14.19,0,0,1,9.33-13.74c1.38-.51,1.5-.86,1.25-2a35.31,35.31,0,0,1-.56-3.6l-.09-.7H38.33l-.06.37a21.21,21.21,0,0,1-.46,2.57c-.54,2-.29,2.91,2.17,3.9a13.82,13.82,0,0,1,8,15.85A14.44,14.44,0,1,1,28.69,46.83,4.34,4.34,0,0,0,30.18,46a36.7,36.7,0,0,0,.53-4.6l.06-.83H12.42ZM126.79,69.52h-.37A9.31,9.31,0,0,1,120,66.4a9,9,0,0,1-2.4-6.49,9.41,9.41,0,0,1,9.35-8.76h0a9.3,9.3,0,0,1,6.46,3,9,9,0,0,1,2.54,6.47,9.29,9.29,0,0,1-3.05,6.47A9.1,9.1,0,0,1,126.79,69.52Zm-.05-16.37A7.34,7.34,0,0,0,119.59,60a7,7,0,0,0,1.88,5,7.36,7.36,0,0,0,5,2.45,7.08,7.08,0,0,0,5-1.92,7.33,7.33,0,0,0,2.4-5.07,7,7,0,0,0-2-5,7.29,7.29,0,0,0-5.06-2.34ZM33.81,69.52a9.43,9.43,0,0,1-9.17-9.13,9.38,9.38,0,0,1,8.89-9.24h0a9.11,9.11,0,0,1,6.9,15.45A9.32,9.32,0,0,1,34,69.52ZM33.6,53.15a7.34,7.34,0,0,0-7,7.22,7.24,7.24,0,0,0,2.25,5.06,7.11,7.11,0,0,0,5,2.09,7.29,7.29,0,0,0,5-2.3,7.09,7.09,0,0,0,2-5,7.38,7.38,0,0,0-7.4-7Zm88.66-18.23H38.34l.25-1.2c3.1-14.85,23-28.38,41.7-28.38S118.83,18.86,122,33.71Zm-81.42-2h78.9C116,19.38,97.59,7.34,80.29,7.34v0C62.93,7.34,44.56,19.39,40.84,32.92Z" style="fill: #061c23"/>
    </g>
    <g>
      <path d="M120.12,103.75H46.2c-.53-4.67-1.07-9.1-1.53-13.55-.22-2.06-1.23-3.09-3.35-3.06q-3.62.08-7.23,0c-1.81,0-3.18.67-3.21,2.55s1.41,2.75,3.32,2.71c1.71,0,3.42,0,5.2,0,.19.92.39,1.66.48,2.41,1.93,17.36,3.89,34.72,5.77,52.08.67,6.25.59,6.26,6.89,6.67-4.69,7.92-4.44,13.95.62,18.62,4.45,4.11,11.16,4.82,15.86,1.06a17.55,17.55,0,0,0,5-6.92c1.84-4.59.06-8.84-3-12.66H97.58c-4.59,7-4.57,13.07-.07,17.88a12.71,12.71,0,0,0,15.82,2.3,12.57,12.57,0,0,0,6.21-9.35c.6-4.1-1-7.62-3.58-10.93,4.31-.26,4.9-.67,5.14-3.38q1.86-20.7,3.71-41.4C125.21,104.24,124.74,103.75,120.12,103.75ZM62,170.32a7.5,7.5,0,0,1-7.62-7.42,7.36,7.36,0,0,1,7.42-7.56,7.48,7.48,0,0,1,7.56,7.47A7.71,7.71,0,0,1,62,170.32Zm44.8,0a7.52,7.52,0,0,1-7.43-7.62,7.49,7.49,0,0,1,15,0A7.67,7.67,0,0,1,106.81,170.33ZM116,148H51.12c-1.45-13-2.89-25.86-4.35-38.88h72.69C118.31,122.13,117.16,135,116,148Z" style="fill: #061c23"/>
      <path d="M61.91,176.71a14,14,0,0,1-9.43-3.79c-5.16-4.76-5.68-10.81-1.59-18.48-5.15-.43-5.57-1.28-6.21-7.2l0-.24c-1.52-14.06-3.12-28.35-4.66-42.16l-1.11-9.91a13.83,13.83,0,0,0-.27-1.45l0-.08h-.82c-1.2,0-2.37,0-3.54,0a4.4,4.4,0,0,1-3.37-1.08,3.54,3.54,0,0,1-1-2.64,3.42,3.42,0,0,1,1-2.49,4.32,4.32,0,0,1,3.23-1c2.48,0,4.9,0,7.2,0,1.8,0,4,.63,4.36,4,.33,3.15.7,6.29,1.07,9.52l.36,3.13h73c2.3,0,4,.08,5,1.15s.9,2.73.7,5q-1.83,20.7-3.7,41.4c-.27,3-1.39,3.82-4.27,4.14,2.35,3.45,3.21,6.73,2.7,10.23a13.8,13.8,0,0,1-23.75,7.58c-3.18-3.39-5.79-9.13-1-17.56H73c2.85,4.22,3.48,8.17,1.93,12a18.38,18.38,0,0,1-5.3,7.34A12.35,12.35,0,0,1,61.91,176.71ZM36.2,91.39h4l.16.8c.06.3.13.58.18.85a14,14,0,0,1,.31,1.65L42,104.61c1.54,13.82,3.14,28.11,4.66,42.17l0,.25c.28,2.67.44,4.14,1,4.69s2.22.67,4.9.84l1.63.11-.83,1.4c-4.43,7.49-4.29,13,.44,17.38,4.25,3.92,10.37,4.35,14.55,1a16.5,16.5,0,0,0,4.69-6.52c1.48-3.67.58-7.37-2.82-11.66L69,152.66H99.43l-1,1.55c-4.3,6.57-4.36,12.17-.18,16.65a11.8,11.8,0,0,0,20.31-6.51c.5-3.41-.57-6.64-3.38-10.17l-1.2-1.51,1.93-.11c4-.24,4-.45,4.21-2.47q1.86-20.7,3.7-41.4c.13-1.43.23-3-.19-3.44s-2-.5-3.5-.5H45.31l-.57-4.9c-.37-3.24-.74-6.39-1.07-9.54-.17-1.61-.79-2.21-2.33-2.17-2.33,0-4.77,0-7.27,0a2.54,2.54,0,0,0-1.81.48,1.47,1.47,0,0,0-.38,1.08,1.61,1.61,0,0,0,.38,1.19,2.63,2.63,0,0,0,1.92.51C34.85,91.39,35.52,91.39,36.2,91.39Zm70.62,79.94h0a8.39,8.39,0,0,1-6-2.51,8.54,8.54,0,0,1-2.48-6.12,8.3,8.3,0,0,1,2.52-6,8.47,8.47,0,1,1,11.91,12A8.4,8.4,0,0,1,106.82,171.33Zm.06-15a6.54,6.54,0,0,0-4.59,1.83,6.38,6.38,0,0,0-1.91,4.55,6.53,6.53,0,0,0,1.91,4.7,6.36,6.36,0,0,0,4.53,1.91h0a6.43,6.43,0,0,0,4.58-2,6.55,6.55,0,0,0,1.95-4.63,6.47,6.47,0,0,0-6.36-6.41Zm-45.08,15A8.33,8.33,0,0,1,56,169a8.56,8.56,0,0,1-.23-12.14,8.41,8.41,0,0,1,6-2.49h0a8.52,8.52,0,0,1,6.06,2.5,8.35,8.35,0,0,1,2.47,6,8.72,8.72,0,0,1-8.33,8.5H61.8Zm0-15h0a6.42,6.42,0,0,0-4.59,1.89,6.57,6.57,0,0,0,.18,9.3A6.33,6.33,0,0,0,62,169.32a6.68,6.68,0,0,0,6.39-6.51,6.33,6.33,0,0,0-1.88-4.55A6.53,6.53,0,0,0,61.84,156.34ZM116.92,149H50.22l-4.57-40.88h74.9ZM52,147h63.08l3.28-36.88H47.89Z" style="fill: #061c23"/>
    </g>
  </g>
</svg>
