<svg xmlns="http://www.w3.org/2000/svg" width="144" height="216.05" viewBox="0 0 144 216.05">
  <title>selfie</title>
  <g>
    <path d="M129.63,97.05h-10.8V90.42l12.52-5.18a14.41,14.41,0,0,0-10.64-26.79l-1.88.75V14.4A14.4,14.4,0,0,0,104.43,0H36a14.4,14.4,0,0,0-14.4,14.4V86.31A22.1,22.1,0,0,0,.84,108.57a320.37,320.37,0,0,1-.18,33.09c-.39,7.2-.88,16.18-.56,20.47a28.68,28.68,0,0,0,6.45,17.8c3.68,5.27,3,4.61,6,9.15,6,9.1,5.43,10.41,5.43,16.17a10.8,10.8,0,0,0,10.81,10.8H72a10.8,10.8,0,0,0,10.8-10.8v-7.38a3.6,3.6,0,0,1,1.8-3.11,55.45,55.45,0,0,0,18.16-14.89h1.65A14.41,14.41,0,0,0,118.33,169c.17,0,.33,0,.5,0h3.71a14.35,14.35,0,0,0,10.89-23.72A14.24,14.24,0,0,0,137,123.78a14.37,14.37,0,0,0-7.33-26.73Zm0,7.2a7.2,7.2,0,1,1,0,14.4h-10.8a7.2,7.2,0,0,1,0-14.4Zm-3.6,36h-7.2a7.2,7.2,0,0,1,0-14.4H126a7.2,7.2,0,0,1,0,14.4Zm-2.67-75.11a7.21,7.21,0,0,1,5.29,13.42l-9.82,4.06V67ZM54.86,14.4a3.57,3.57,0,0,1-3.22-2L49,7.2H91.4l-2.61,5.21a3.55,3.55,0,0,1-3.22,2ZM81.09,188.5a10.79,10.79,0,0,0-5.47,9.36v7.39a3.6,3.6,0,0,1-3.6,3.6H28.81a3.6,3.6,0,0,1-3.6-3.6v-3.6c0-7.73-5-13.79-8.49-19.44-6.4-10.38-8.64-10.17-9.44-20.63-.41-5.61.81-21.89,1-27.84.09-3.6-.1-16.8-.21-25.27a15,15,0,0,1,14.85-15c8.25,0,11,5.19,19.34,7.56a105.46,105.46,0,0,0,15.85,3.1,3.52,3.52,0,0,1,3.15,3.45v.6c0,1.26-.74,12.25-18,12.25a1.65,1.65,0,0,0-.66.06c-2.75.23-15.35-2.33-17.72-7.08a3.61,3.61,0,1,0-6.44,3.25,12.83,12.83,0,0,0,3.21,4v44.87A14.4,14.4,0,0,0,36,179.87H93.14A62.59,62.59,0,0,1,81.09,188.5Zm5-127.22-8.57-3.67a67.51,67.51,0,0,0,4.65-5.2,18.15,18.15,0,0,1,3.92,8.87Zm-32,2.56c.57-13.37,12.16-20.11,22.37-15.76A43.52,43.52,0,0,1,54.09,63.84Zm17.54-.92,14.48,6.19c-3.16,22.51-27,23.16-31.44,2a42.62,42.62,0,0,0,17-8.22Zm22,55.19v18.72h-7.2v-14.4a3.6,3.6,0,1,0-7.2,0v14.4h-18c0-17.85,0-13.93,0-14.55a19.73,19.73,0,0,0,7.24-14.73,10.75,10.75,0,0,0-10-10.67,23.56,23.56,0,0,1,35.22,21.23ZM46.81,136.83v-9.4a32,32,0,0,0,7.2-1.38v10.78Zm57.62,35.83H36a7.2,7.2,0,0,1-7.2-7.2V124.77a43.72,43.72,0,0,0,10.8,2.69v9.37a7.2,7.2,0,0,0,7.2,7.21H93.62a7.2,7.2,0,0,0,7.2-7.21V118.11A32.05,32.05,0,0,0,82.91,89.3,30.72,30.72,0,0,0,93.55,66.85v0a25.87,25.87,0,0,0-9.62-22.71C68.61,33,46.81,43.21,46.81,64.82a31.47,31.47,0,0,0,10.6,24.41,30.25,30.25,0,0,0-8.55,6c-1.52-.33-3.09-.72-4.66-1.16-5.82-1.66-8.65-5.46-15.39-7.14V14.4A7.2,7.2,0,0,1,36,7.2h5l4.21,8.44a10.77,10.77,0,0,0,9.66,6H85.57a10.76,10.76,0,0,0,9.66-6L99.45,7.2h5a7.21,7.21,0,0,1,7.2,7.2V99.05a14.24,14.24,0,0,0-2.23,23.2,14.29,14.29,0,0,0,0,21.64A14.26,14.26,0,0,0,111.46,167a7.19,7.19,0,0,1-7,5.69Zm18.11-10.8h-3.71a7.2,7.2,0,0,1,0-14.4h3.71a7.2,7.2,0,1,1,0,14.4Z" style="fill: #061c23"/>
    <path d="M90,158.44H50.41a3.6,3.6,0,1,0,0,7.2H90a3.6,3.6,0,1,0,0-7.2Z" style="fill: #061c23"/>
  </g>
</svg>
