<svg xmlns="http://www.w3.org/2000/svg" width="230" height="310" viewBox="0 0 230 310">
  <title>share</title>
  <g>
    <path d="M80.6,70.61,100,51.21V205a15,15,0,0,0,30,0V51.21l19.39,19.4a15,15,0,0,0,21.22-21.22l-45-45a13.07,13.07,0,0,0-1.11-1A6.13,6.13,0,0,0,124,3c-.22-.17-.43-.34-.67-.5s-.42-.26-.63-.38-.41-.26-.62-.37-.44-.22-.66-.32l-.67-.31L120.09.9l-.74-.26L118.7.48c-.26-.07-.51-.14-.77-.19s-.51-.08-.76-.12l-.69-.1C116,0,115.55,0,115.09,0h-.18c-.46,0-.93,0-1.39.07l-.68.1c-.26,0-.52.07-.77.12l-.75.18-.68.18c-.24.07-.47.16-.71.24l-.67.25c-.22.09-.43.2-.65.3s-.46.21-.68.33-.4.24-.6.35-.45.26-.66.41-.42.3-.63.46-.37.26-.55.41c-.37.3-.71.62-1,.95l0,0-45,45A15,15,0,0,0,80.6,70.61Z" style="fill: #051c22"/>
    <path d="M215,100H175a15,15,0,0,0,0,30h25V280H30V130H55a15,15,0,0,0,0-30H15A15,15,0,0,0,0,115V295a15,15,0,0,0,15,15H215a15,15,0,0,0,15-15V115A15,15,0,0,0,215,100Z" style="fill: #051c22"/>
  </g>
</svg>
