<svg xmlns="http://www.w3.org/2000/svg" width="1076.85" height="349.99" viewBox="0 0 1076.85 349.99">
  <title>Asset 1</title>
  <g>
    <g>
      <g>
        <path d="M0,51.83H17.31V76.58A69.33,69.33,0,0,1,40.89,55.44a62.78,62.78,0,0,1,29.77-7,66.47,66.47,0,0,1,49,20.55,68.21,68.21,0,0,1,20.37,49.7,69.47,69.47,0,0,1-20.19,50.43,68,68,0,0,1-78.24,14,74,74,0,0,1-24.28-19.91v72.4H0ZM69.22,65.05a50.84,50.84,0,0,0-37.8,15.69q-15.36,15.69-15.36,39a55.16,55.16,0,0,0,6.86,27.53,49.88,49.88,0,0,0,19.61,19.39,54.12,54.12,0,0,0,26.93,7.15,50.7,50.7,0,0,0,26.15-7.21,53,53,0,0,0,19.54-20.19,54.5,54.5,0,0,0,0-54.33,52,52,0,0,0-46.06-27Z" style="fill: #5cb9cd"/>
        <path d="M338.46,51.83h17.31V76.58a69.46,69.46,0,0,1,23.59-21.14,62.75,62.75,0,0,1,29.76-7,66.47,66.47,0,0,1,49,20.55,68.21,68.21,0,0,1,20.37,49.7,69.47,69.47,0,0,1-20.19,50.43,68,68,0,0,1-78.24,14,74,74,0,0,1-24.28-19.91v72.4H338.5Zm69.22,13.22a50.85,50.85,0,0,0-37.79,15.69q-15.39,15.69-15.37,39a55.37,55.37,0,0,0,6.86,27.53A49.88,49.88,0,0,0,381,166.68a54.15,54.15,0,0,0,26.88,7.15A50.73,50.73,0,0,0,434,166.62a52.82,52.82,0,0,0,19.53-20.19,54.5,54.5,0,0,0,0-54.33,52.11,52.11,0,0,0-46.08-27Z" style="fill: #5cb9cd"/>
        <path d="M578.53,66.55,567.32,78q-13.87-13.49-27.14-13.47a20.54,20.54,0,0,0-14.44,5.6,17.2,17.2,0,0,0-6,13,19.19,19.19,0,0,0,5,12.48q4.92,6,20.8,14.21,19.34,10,26.26,19.3a35.1,35.1,0,0,1,6.82,21.12,38,38,0,0,1-11.63,28,39.83,39.83,0,0,1-29.1,11.49,50.92,50.92,0,0,1-22.23-5.07,48.08,48.08,0,0,1-17.52-14L509,158.37q13.28,14.94,28.13,14.94a25.33,25.33,0,0,0,17.72-6.67,20.66,20.66,0,0,0,7.31-15.7,20.16,20.16,0,0,0-4.82-13.23q-4.86-5.6-21.82-14.34-18.21-9.34-24.76-18.55a34.81,34.81,0,0,1-6.5-20.77A34,34,0,0,1,514.7,58.59a36.48,36.48,0,0,1,26.43-10.14Q559.71,48.38,578.53,66.55Z" style="fill: #5cb9cd"/>
        <path d="M609.18,0h17.31V76A73.77,73.77,0,0,1,649.61,55.3a56.26,56.26,0,0,1,27.31-6.85,47.85,47.85,0,0,1,26.77,7.66,45.74,45.74,0,0,1,17.24,20.54q5.6,12.91,5.6,40.5v69.22h-17.3v-64.2q0-23.23-1.86-31-3.2-13.38-11.68-20.1T673.5,64.33a42.63,42.63,0,0,0-28.16,10.38A48.56,48.56,0,0,0,629,100.41q-2.48,9.9-2.47,36.59v49.33H609.18Z" style="fill: #5cb9cd"/>
        <path d="M897.58,51.83V186.31H880.53v-23.1A74.08,74.08,0,0,1,856.13,183a68.26,68.26,0,0,1-78.44-14,69.45,69.45,0,0,1-20.21-50.43,68.17,68.17,0,0,1,20.43-49.48A66.52,66.52,0,0,1,827,48.56a63.68,63.68,0,0,1,30,7,68.41,68.41,0,0,1,23.56,21V51.83ZM828.47,65.05A52.16,52.16,0,0,0,782.36,92.1a54.45,54.45,0,0,0,0,54.33A52.82,52.82,0,0,0,802,166.62a51,51,0,0,0,26.37,7.21,54,54,0,0,0,26.92-7.15,50.13,50.13,0,0,0,19.55-19.39,55.16,55.16,0,0,0,6.86-27.53q0-23.34-15.38-39a50.88,50.88,0,0,0-37.87-15.69Z" style="fill: #5cb9cd"/>
        <path d="M936.77,51.83h17.31V76.58a69.17,69.17,0,0,1,23.59-21.14,62.72,62.72,0,0,1,29.75-7.06,66.42,66.42,0,0,1,49,20.54,68.22,68.22,0,0,1,20.38,49.7,69.49,69.49,0,0,1-20.19,50.43,68,68,0,0,1-78.24,14,73.8,73.8,0,0,1-24.28-19.91v72.4H936.8ZM1006,65.05A50.78,50.78,0,0,0,968.2,80.74q-15.39,15.69-15.37,39a55.25,55.25,0,0,0,6.85,27.53,49.91,49.91,0,0,0,19.62,19.39,54.06,54.06,0,0,0,27,7.15,50.73,50.73,0,0,0,26.15-7.21,52.82,52.82,0,0,0,19.53-20.19,54.5,54.5,0,0,0,0-54.33,52.11,52.11,0,0,0-46.07-27Z" style="fill: #5cb9cd"/>
      </g>
      <path d="M287.62,70.86a69.72,69.72,0,0,0-16.57-13.54v22c.67.64,1.37,1.22,2,1.87a53.24,53.24,0,0,1,15.58,38.57A54.63,54.63,0,0,1,281.57,147a50.07,50.07,0,0,1-19.11,19.49,54.34,54.34,0,0,1-52.84,0A50.41,50.41,0,0,1,190.51,147a54.74,54.74,0,0,1-7.06-27.19A53.3,53.3,0,0,1,199,81.23l.44-.41V58.41a72,72,0,0,0-22.29,99.35,70.71,70.71,0,0,0,8.42,10.84q19.6,21.08,50.58,21.07t50.43-21.07a72.21,72.21,0,0,0,1-97.85Z" style="fill: #5cb9cd"/>
      <path d="M234.54,113.17c-4.35,0-7.87-4.28-7.87-9.56V45.16c0-5.28,3.52-9.56,7.87-9.56s7.86,4.28,7.86,9.56v58.45C242.4,108.89,238.87,113.17,234.54,113.17Z" style="fill: #5cb9cd"/>
    </g>
    <g style="isolation: isolate">
      <g style="isolation: isolate">
        <path d="M46.17,296.62a12.06,12.06,0,0,1,5.19,10.3,12.34,12.34,0,0,1-9.82,12.48,14.47,14.47,0,0,1,8.81,4.83,14.12,14.12,0,0,1,3.18,9.41A13.42,13.42,0,0,1,47.94,345q-5.59,4.14-15.26,4.14H6.92V292.83H32Q41,292.83,46.17,296.62ZM38,314a6.16,6.16,0,0,0,2.37-5.15,5.87,5.87,0,0,0-2.37-5,10.49,10.49,0,0,0-6.57-1.69H17.71v13.68H31.39A10.43,10.43,0,0,0,38,314Zm1.48,23.91a6.45,6.45,0,0,0,2.9-5.63,6.23,6.23,0,0,0-2.9-5.44q-2.89-2-8-1.89H17.71v14.89H31.39C34.83,339.9,37.51,339.25,39.44,337.91Z" style="fill: #123944"/>
        <path d="M72.05,292.83h41.29v9.42H82.83v13.93H110.2v9.41H82.83v14.17h31.48v9.42H72.05Z" style="fill: #123944"/>
      </g>
      <g style="isolation: isolate">
        <path d="M178.62,292.83l-20.53,37.92v18.43H147.3v-18l-21-38.32h11l15.38,26.49,15.13-26.49Z" style="fill: #123944"/>
      </g>
      <g style="isolation: isolate">
        <path d="M232.35,295.89a28.84,28.84,0,0,1,10.83,39.73,28.67,28.67,0,0,1-10.83,10.5,32,32,0,0,1-30.51,0A28.67,28.67,0,0,1,191,335.62a28.53,28.53,0,0,1,10.83-39.73,32.67,32.67,0,0,1,30.51,0Zm-24.67,8.41a19.31,19.31,0,0,0-7,26.37,19.52,19.52,0,0,0,7,7,18.46,18.46,0,0,0,9.54,2.58,18.08,18.08,0,0,0,9.41-2.58,19,19,0,0,0,6.89-7,19.28,19.28,0,0,0,2.53-9.74,19,19,0,0,0-2.53-9.7,18.7,18.7,0,0,0-6.89-6.93,18.32,18.32,0,0,0-9.41-2.53A18.93,18.93,0,0,0,207.68,304.3Z" style="fill: #123944"/>
        <path d="M304,292.83h10.47v56.35H304.19l-29-38.8v38.8H264.67V292.83h10.22L304,331.71Z" style="fill: #123944"/>
        <path d="M374.87,296.41a26.39,26.39,0,0,1,10.47,10A28.23,28.23,0,0,1,389.12,321a27.87,27.87,0,0,1-3.82,14.53,26.9,26.9,0,0,1-10.59,10,32.1,32.1,0,0,1-15.38,3.62h-23V292.83h23.43A31.6,31.6,0,0,1,374.87,296.41Zm-5.59,40.9a17,17,0,0,0,6.48-6.6,20.87,20.87,0,0,0-.08-19.32,17.09,17.09,0,0,0-6.65-6.68,18.87,18.87,0,0,0-9.45-2.38H347.1v37.35H360A18.43,18.43,0,0,0,369.28,337.31Z" style="fill: #123944"/>
        <path d="M434.36,292.83h10.78v56.35H434.36Z" style="fill: #123944"/>
        <path d="M506.32,292.83h10.47v56.35H506.56l-29-38.8v38.8H467V292.83h10.22l29.06,38.88Z" style="fill: #123944"/>
        <path d="M532.4,292.83h46v9.58H560.82v46.77H550V302.41H532.4Z" style="fill: #123944"/>
        <path d="M594.07,292.83h41.29v9.42H604.85v13.93h27.37v9.41H604.85v14.17h31.48v9.42H594.07Z" style="fill: #123944"/>
        <path d="M690.58,349.18l-9.74-16.66a18.93,18.93,0,0,1-2,.08H666.11v16.58H655.32V292.83h23.51q10.95,0,16.9,5.07t6,14.33a21.14,21.14,0,0,1-2.86,11.27,17.38,17.38,0,0,1-8.33,7l12.4,18.68ZM666.11,323.1h12.72q6.12,0,9.34-2.66c2.14-1.77,3.22-4.4,3.22-7.89s-1.08-6-3.22-7.72-5.26-2.58-9.34-2.58H666.11Z" style="fill: #123944"/>
      </g>
      <g style="isolation: isolate">
        <path d="M763.29,349.18l-5-11.91H730.77l-5,11.91H714.59l24.71-56.35h11.19l24.39,56.35ZM734.63,328h19.8l-9.82-23.67Z" style="fill: #123944"/>
      </g>
      <g style="isolation: isolate">
        <path d="M822.08,303.7a19.16,19.16,0,0,0-17.83.56,18.11,18.11,0,0,0-6.84,6.89,19.74,19.74,0,0,0,0,19.23,18.35,18.35,0,0,0,6.84,6.93,18.67,18.67,0,0,0,9.58,2.53,20.14,20.14,0,0,0,8.09-1.77,23.2,23.2,0,0,0,7.2-4.91l6.36,7.09a33.32,33.32,0,0,1-10.3,7.12A29.13,29.13,0,0,1,813.26,350a29.45,29.45,0,0,1-14.89-3.87,28.25,28.25,0,0,1-10.62-10.5,28.67,28.67,0,0,1-3.87-14.69,28.3,28.3,0,0,1,14.69-25,31.24,31.24,0,0,1,26.93-1.37,29.19,29.19,0,0,1,9.9,6.68l-6.28,7.89A21.27,21.27,0,0,0,822.08,303.7Z" style="fill: #123944"/>
        <path d="M846,292.83h46v9.58H874.44v46.77H863.57V302.41H846Z" style="fill: #123944"/>
        <path d="M907.61,292.83h10.78v56.35H907.61Z" style="fill: #123944"/>
        <path d="M933.45,292.83H945l16.58,44.36,16.74-44.36h11.11l-22.54,56.35H955.74Z" style="fill: #123944"/>
        <path d="M1004.61,292.83h41.29v9.42h-30.51v13.93h27.37v9.41h-27.37v14.17h31.48v9.42h-42.26Z" style="fill: #123944"/>
      </g>
    </g>
  </g>
</svg>
