<svg xmlns="http://www.w3.org/2000/svg" width="187.8" height="240.38" viewBox="0 0 187.8 240.38">
  <title>wheel</title>
  <path d="M187.8,108.92a94,94,0,0,0-72.31-91.4L126.6,6.41A3.75,3.75,0,0,0,124,0H63.85a3.76,3.76,0,0,0-2.66,6.41L72.31,17.52a93.92,93.92,0,0,0-8.46,180.37v16.2H39a5.17,5.17,0,0,0-5.17,5.16v17.37a3.76,3.76,0,0,0,3.76,3.76H150.24a3.75,3.75,0,0,0,3.75-3.76V219.25a5.16,5.16,0,0,0-5.16-5.16H124v-16.2A94.08,94.08,0,0,0,187.8,108.92ZM114.88,7.51l-21,21-21-21Zm9.85,48a3.7,3.7,0,0,0,1.88.51,3.75,3.75,0,0,0,3.25-1.88l2.91-5a72,72,0,0,1,20.95,20.94L115.43,92.16A3.75,3.75,0,0,0,113.59,96a3.71,3.71,0,0,0,.32,2.58,22.22,22.22,0,0,1,2.52,10.37A22.54,22.54,0,1,1,93.9,86.39a22.28,22.28,0,0,1,10.18,2.42,3.71,3.71,0,0,0,2.39.34,3.76,3.76,0,0,0,4.2-1.76l12-20.82a3.76,3.76,0,0,0-6.51-3.76L105.55,81.23a29.61,29.61,0,0,0-7.9-2.12V37.66a70.65,70.65,0,0,1,28.62,7.68l-2.91,5A3.75,3.75,0,0,0,124.73,55.51Zm18,57.17h22.43a70.65,70.65,0,0,1-7.68,28.62l-35.89-20.73a29.46,29.46,0,0,0,2.11-7.89h4a3.76,3.76,0,1,0,0-7.51h-4a30.65,30.65,0,0,0-2.11-7.9l35.88-20.72a70.65,70.65,0,0,1,7.68,28.62H142.73a3.76,3.76,0,1,0,0,7.51Zm-10,56.06-20.72-35.89a30.37,30.37,0,0,0,5.77-5.78l35.9,20.72A72,72,0,0,1,132.77,168.74Zm-71.25,3.77,20.73-35.89a30.23,30.23,0,0,0,7.89,2.11v41.46A71,71,0,0,1,61.52,172.51ZM34.08,147.79,70,127.07a30.42,30.42,0,0,0,5.78,5.78L55,168.74A71.87,71.87,0,0,1,34.08,147.79ZM55,49.11,75.75,85A30.37,30.37,0,0,0,70,90.77L34.08,70.05A71.84,71.84,0,0,1,55,49.11Zm35.11,30a29.46,29.46,0,0,0-7.89,2.11L61.52,45.34a70.65,70.65,0,0,1,28.62-7.68ZM30.31,76.55,66.2,97.27a30.19,30.19,0,0,0-2.11,7.9H22.63A71,71,0,0,1,30.31,76.55Zm33.78,36.13a30.23,30.23,0,0,0,2.11,7.89L30.31,141.3a71,71,0,0,1-7.68-28.62Zm33.56,26a30.19,30.19,0,0,0,7.9-2.11l20.72,35.89a71,71,0,0,1-28.62,7.68ZM7.51,108.92a86.41,86.41,0,0,1,71.15-85l6.64,6.64a78.27,78.27,0,0,0-30.54,9.94l-.3.16a2.46,2.46,0,0,0-.34.22A79.42,79.42,0,0,0,25.81,69.15a2.84,2.84,0,0,0-.22.34l-.15.29a78.72,78.72,0,0,0,0,78.28c0,.1.09.2.15.3a2.4,2.4,0,0,0,.18.26A79.44,79.44,0,0,0,54.12,177l.34.22.21.1a78.73,78.73,0,0,0,78.46,0l.21-.1a3.78,3.78,0,0,0,.33-.22A79.54,79.54,0,0,0,162,148.62l.18-.26.15-.3a78.79,78.79,0,0,0,0-78.28l-.15-.3a3.88,3.88,0,0,0-.23-.33,79.34,79.34,0,0,0-28.31-28.31,2.37,2.37,0,0,0-.33-.22l-.3-.16a78.38,78.38,0,0,0-30.54-9.94l6.63-6.64a86.39,86.39,0,1,1-101.62,85Zm139,124H41.32V221.6H146.48Zm-30-18.78H71.36v-14a94,94,0,0,0,45.07,0Z" style="fill: #061c23"/>
</svg>
